PathFileType	4	(X/Y/Z)	\\move.snu.ac.kr\motion\Animal\091204_091205_Bird\091205_bird\Project 2\Capture day 2\Session 1\pigeon_021.trc
DataRate	CameraRate	NumFrames	NumMarkers	Units	OrigDataRate	OrigDataStartFrame	OrigNumFrames
240.0	240.0	20	14	mm	240.0	1	2193
Frame#	Time	14MarkersBird:Head			14MarkersBird:C_back			14MarkersBird:Spine			14MarkersBird:L-shoulder			14MarkersBird:L-elbow			14MarkersBird:L-wrist			14MarkersBird:L-hand			14MarkersBird:R-shoulder			14MarkersBird:R-elbow			14MarkersBird:R-Wrist			14MarkersBird:R-hand			14MarkersBird:C_Tail			14MarkersBird:L-Tale			14MarkersBird:R-Tale			
		X1	Y1	Z1	X2	Y2	Z2	X3	Y3	Z3	X4	Y4	Z4	X5	Y5	Z5	X6	Y6	Z6	X7	Y7	Z7	X8	Y8	Z8	X9	Y9	Z9	X10	Y10	Z10	X11	Y11	Z11	X12	Y12	Z12	X13	Y13	Z13	X14	Y14	Z14	

870	3.621	1009.79266	1456.92957	-2148.25293	1064.44214	1434.62866	-2173.75342	1106.32349	1412.12122	-2199.39014	1048.98828	1439.81885	-2139.16357	1073.54309	1440.16565	-2130.56689	1058.54541	1438.46704	-2093.99609	1059.73157	1439.68384	-2070.31860	1023.09802	1430.04492	-2181.20972	1024.16602	1427.42627	-2209.66602	992.37701	1417.84375	-2213.52612	969.56561	1411.04651	-2233.83838	1184.17529	1317.24854	-2223.95410	1182.98364	1372.97510	-2134.31299	1088.03320	1330.24194	-2280.88989	
871	3.625	1005.36908	1458.57385	-2147.83740	1060.83411	1437.58582	-2172.88794	1103.27710	1415.31824	-2198.02588	1044.57446	1442.23364	-2138.46875	1069.33923	1439.34583	-2127.17114	1048.80359	1434.79175	-2093.18359	1045.97974	1431.22266	-2070.35327	1019.18988	1432.10657	-2180.56104	1018.02747	1424.40210	-2206.46436	986.56360	1414.35107	-2205.98462	961.16547	1402.37158	-2220.22656	1182.51440	1320.50415	-2218.72803	1178.93628	1377.26025	-2131.00806	1087.51099	1331.13550	-2278.16870	
872	3.629	1000.78717	1459.99768	-2147.30688	1057.10596	1440.51794	-2171.99365	1100.04968	1418.36584	-2196.57422	1040.17615	1444.58655	-2137.71069	1065.33752	1438.88062	-2124.70581	1039.67004	1432.86902	-2093.70361	1032.82349	1425.13721	-2072.90234	1015.37677	1434.31177	-2179.84961	1014.03265	1423.36792	-2203.90723	982.01178	1413.04224	-2198.71265	955.22296	1396.97437	-2206.33252	1180.56470	1323.72083	-2213.53345	1174.68457	1381.24500	-2127.76099	1087.13293	1332.25342	-2275.50122	
873	3.633	996.03369	1461.18616	-2146.66016	1053.16602	1443.35229	-2171.04297	1096.61755	1421.23596	-2195.02100	1035.72241	1446.88464	-2136.86646	1061.61719	1439.07251	-2123.20264	1031.68396	1433.01636	-2095.10962	1021.10400	1421.84668	-2076.88184	1011.62994	1436.53381	-2179.08887	1012.42847	1425.14294	-2202.95117	978.61719	1413.92603	-2192.58716	951.33044	1394.80884	-2193.68823	1178.29358	1326.88611	-2208.54321	1170.24219	1384.90527	-2124.59106	1086.83752	1333.46021	-2272.79492	
874	3.638	991.11304	1462.14026	-2145.91528	1048.95032	1446.02686	-2170.03687	1092.92810	1423.91345	-2193.31567	1031.13000	1449.10132	-2135.99854	1058.24060	1440.12048	-2122.60181	1025.17114	1435.47693	-2096.99805	1011.41895	1421.61133	-2081.30811	1007.79517	1438.77405	-2178.34839	1011.21484	1426.73303	-2202.32739	976.13757	1416.94421	-2188.26831	948.99347	1395.48132	-2183.74854	1175.67664	1329.95044	-2203.85278	1165.61731	1388.26196	-2121.48267	1086.50903	1334.62976	-2269.93506	
875	3.642	986.04974	1462.87170	-2145.09790	1044.41846	1448.44556	-2168.93481	1089.00366	1426.37439	-2191.48022	1026.39111	1451.17529	-2135.08081	1055.18445	1442.12122	-2122.86450	1020.23224	1440.09558	-2098.98462	1004.29913	1424.35413	-2085.22241	1003.89087	1440.94446	-2177.56860	1009.60724	1428.74109	-2201.84619	974.33527	1421.88513	-2186.13867	947.89990	1398.54004	-2177.55396	1172.69226	1332.85205	-2199.48877	1160.77783	1391.34387	-2118.38379	1085.96680	1335.65063	-2266.82373	
876	3.646	980.87531	1463.41187	-2144.23047	1039.60010	1450.57666	-2167.73486	1084.84631	1428.59668	-2189.51147	1021.46826	1453.10400	-2134.15601	1052.28760	1445.03235	-2123.92212	1016.76245	1446.57861	-2100.86133	1000.12274	1429.78577	-2088.11646	999.90778	1442.99219	-2176.71069	1008.79163	1431.93396	-2201.47998	973.06665	1428.30750	-2186.15698	947.65985	1403.36304	-2175.66919	1169.33801	1335.51294	-2195.39380	1155.72546	1394.22107	-2115.23462	1085.02515	1336.47290	-2263.45044	
877	3.650	975.64056	1463.81946	-2143.36572	1034.52319	1452.39600	-2166.42700	1080.50793	1430.61572	-2187.43628	1016.35248	1454.84338	-2133.19531	1049.31555	1448.67139	-2125.70337	1014.52625	1454.44067	-2102.69116	998.83356	1437.39380	-2089.91650	995.82495	1444.91064	-2175.76440	1008.45837	1436.14465	-2202.28198	972.17230	1435.80444	-2187.92651	948.22247	1409.50635	-2178.00244	1165.64001	1337.86011	-2191.45825	1150.44458	1396.94922	-2111.97290	1083.50049	1337.11926	-2259.86035	
878	3.654	970.40149	1464.15173	-2142.53198	1029.25354	1453.90332	-2165.02661	1076.02271	1432.38696	-2185.22363	1011.05518	1456.37695	-2132.21973	1046.02271	1452.76770	-2128.13428	1013.05505	1463.07397	-2104.56885	1000.08789	1446.56116	-2090.86646	991.79480	1446.65332	-2174.61475	1008.21130	1438.12939	-2204.53735	971.58765	1443.91187	-2190.80371	949.68927	1416.64502	-2183.90283	1161.63721	1339.85449	-2187.55322	1144.94409	1399.57190	-2108.55371	1081.27759	1337.61487	-2256.15698	
879	3.658	965.19116	1464.44324	-2141.72437	1023.87482	1455.13074	-2163.56201	1071.48022	1433.96533	-2182.93091	1005.59827	1457.72229	-2131.28369	1042.20605	1457.02185	-2131.07202	1011.92352	1471.98267	-2106.72217	1003.22906	1456.68762	-2091.62573	987.73804	1448.27429	-2173.33838	1010.06134	1445.33484	-2205.10303	971.37305	1452.24976	-2194.05981	952.21497	1424.79053	-2192.23071	1157.33447	1341.44690	-2183.56055	1139.24353	1402.10510	-2104.95459	1078.30640	1338.09314	-2252.52759	
880	3.662	960.05792	1464.74768	-2140.97144	1018.48883	1456.09802	-2162.06836	1066.91089	1435.32861	-2180.54736	1000.04211	1458.88904	-2130.40479	1037.68347	1461.16174	-2134.37769	1010.69641	1480.64404	-2109.43286	1007.51624	1467.26831	-2093.02710	983.70764	1449.73755	-2171.95313	1011.13953	1453.22205	-2201.60815	971.44055	1460.54980	-2196.99634	955.98639	1433.94080	-2201.54004	1152.81641	1342.67407	-2179.42383	1133.42041	1404.60474	-2101.21021	1074.57129	1338.68042	-2249.18750	
881	3.667	955.02063	1465.11511	-2140.27490	1013.18195	1456.82861	-2160.57471	1062.37061	1436.46997	-2178.10962	994.43787	1459.84888	-2129.62988	1032.39758	1464.94397	-2137.85400	1008.95227	1488.66187	-2112.84351	1011.96741	1477.89685	-2095.85791	979.71637	1451.03467	-2170.50073	1010.97565	1461.45129	-2196.20532	971.75092	1468.62891	-2199.00439	961.06042	1444.27454	-2210.36743	1148.14624	1343.54956	-2175.15625	1127.51904	1407.05627	-2097.34888	1070.15002	1339.49023	-2246.31299	
882	3.671	950.09436	1465.55237	-2139.62939	1008.02301	1457.37756	-2159.11743	1057.92114	1437.39160	-2175.66772	988.84686	1460.66882	-2128.97119	1026.36511	1468.20361	-2141.25366	1006.45593	1495.86877	-2116.85962	1015.56677	1488.32581	-2100.62061	975.73462	1452.16174	-2169.05884	1008.08167	1467.01501	-2188.15698	972.10205	1476.29053	-2199.88843	967.10504	1455.71179	-2217.44312	1143.42480	1344.15259	-2170.81079	1121.59497	1409.44031	-2093.44116	1065.19788	1340.57495	-2244.01563	
883	3.675	945.28326	1466.09192	-2139.02954	1003.06097	1457.79590	-2157.72388	1053.64307	1438.12659	-2173.27710	983.31787	1461.37622	-2128.41113	1019.71619	1470.88550	-2144.31567	1003.20300	1502.20044	-2121.12354	1017.64691	1498.36169	-2107.11865	971.69269	1453.12708	-2167.73901	1003.09009	1469.88660	-2182.66187	972.25531	1483.30457	-2199.75366	973.53259	1468.12134	-2222.20557	1138.76294	1344.58203	-2166.48682	1115.72144	1411.77307	-2089.57007	1059.94165	1341.93274	-2242.31226	
884	3.679	940.58801	1466.73523	-2138.47021	998.31604	1458.04749	-2156.39722	1049.41809	1438.53125	-2170.92554	977.94720	1461.95349	-2127.91479	1012.68793	1473.05652	-2146.78027	999.24396	1507.59167	-2125.12329	1017.81360	1507.79553	-2114.71753	967.58728	1453.90332	-2166.59912	997.43524	1471.88672	-2177.86914	971.97107	1489.51367	-2198.95288	979.49347	1481.03284	-2224.59985	1134.26685	1344.93970	-2162.27466	1109.96179	1414.08179	-2085.82129	1054.66357	1343.52502	-2241.13989	
885	3.683	935.99945	1467.48022	-2137.93188	993.79108	1458.12500	-2155.11890	1045.22766	1438.57556	-2168.65723	972.75183	1462.46179	-2127.41626	1005.54883	1474.82581	-2148.45068	994.80292	1511.97424	-2128.22925	1015.90198	1516.50903	-2122.39185	963.44006	1454.43481	-2165.65332	991.19525	1473.08472	-2174.32739	971.06866	1494.54602	-2198.07373	984.21356	1493.73853	-2225.17188	1130.05896	1345.38647	-2158.30420	1104.36694	1416.40515	-2082.28174	1049.59900	1345.21655	-2240.32397	
886	3.688	931.49792	1468.30408	-2137.42358	989.44666	1458.09924	-2153.88354	1041.06482	1438.41663	-2166.46118	967.72833	1462.93530	-2126.89087	998.52716	1476.33618	-2149.12500	990.01215	1515.43933	-2129.93237	1011.99670	1524.37476	-2128.81323	959.19067	1454.73547	-2164.96729	984.87830	1473.60315	-2172.24268	969.43146	1498.06824	-2197.70337	987.00653	1505.06323	-2224.79102	1126.21985	1346.06921	-2154.67578	1098.93542	1418.75525	-2078.98730	1044.97229	1346.89172	-2239.64795	
887	3.692	927.07318	1469.21826	-2137.03418	985.23621	1457.94397	-2152.63403	1036.90747	1438.10205	-2164.34131	962.87720	1463.33008	-2126.20923	991.82190	1477.71045	-2148.68823	985.02283	1517.94727	-2129.79761	1006.39258	1531.05896	-2132.64990	954.88239	1454.79504	-2164.50732	978.78406	1473.62878	-2171.77637	966.88782	1499.80005	-2198.23608	987.45850	1513.87170	-2224.53027	1122.74780	1347.05554	-2151.43237	1093.63599	1421.15173	-2075.95093	1040.89063	1348.41492	-2238.88721	
888	3.696	922.68567	1470.17554	-2136.71606	981.09668	1457.73425	-2151.47412	1032.71619	1437.72156	-2162.31909	958.12372	1463.78687	-2125.48120	985.49194	1479.04724	-2147.15967	979.84760	1519.48865	-2127.61499	999.52942	1536.24487	-2132.93262	950.49237	1454.63525	-2164.26074	972.90662	1473.21338	-2172.91284	963.46265	1499.54626	-2199.96484	985.21014	1519.27417	-2225.28003	1119.59888	1348.38599	-2148.54736	1088.43005	1423.57947	-2073.16797	1037.38904	1349.72278	-2237.90991	
889	3.700	918.31555	1471.17773	-2136.50903	976.97083	1457.51636	-2150.40845	1028.51636	1437.30640	-2160.41260	953.42511	1464.30627	-2124.70776	979.56000	1480.30933	-2144.53833	974.46820	1520.05200	-2123.45435	991.80530	1539.63806	-2129.28784	946.00226	1454.23853	-2164.16309	967.38159	1472.48962	-2175.32593	959.08649	1497.28992	-2202.85132	980.22156	1520.59009	-2227.71851	1116.67615	1350.04919	-2145.93555	1083.27551	1426.02832	-2070.61768	1034.39673	1350.79480	-2236.62451	
